PathFileType	4	(X/Y/Z)	/Users/niels/Desktop/University/Third Semester/Perception and Action/Exam/Gymnastics Motion Tracking/Code for Gym Tracking/Analyzed Data/Webcam_Backflip/idid 15_1_trajectory_Sports2D/idid 15_1_trajectory_Sports2D_px_person00.trc
DataRate	CameraRate	NumFrames	NumMarkers	Units	OrigDataRate	OrigDataStartFrame	OrigNumFrames
29.702970297029704	29.702970297029704	10	22	m	29.702970297029704	63	101
Frame#	Time	Hip			RHip			RKnee			RAnkle			RBigToe			RSmallToe			RHeel			LHip			LKnee			LAnkle			LBigToe			LSmallToe			LHeel			Neck			Head			Nose			RShoulder			RElbow			RWrist			LShoulder			LElbow			LWrist		
		X1	Y1	Z1	X2	Y2	Z2	X3	Y3	Z3	X4	Y4	Z4	X5	Y5	Z5	X6	Y6	Z6	X7	Y7	Z7	X8	Y8	Z8	X9	Y9	Z9	X10	Y10	Z10	X11	Y11	Z11	X12	Y12	Z12	X13	Y13	Z13	X14	Y14	Z14	X15	Y15	Z15	X16	Y16	Z16	X17	Y17	Z17	X18	Y18	Z18	X19	Y19	Z19	X20	Y20	Z20	X21	Y21	Z21	X22	Y22	Z22
63	2.121	1.0193066675916451	-0.3984696432603107	0.0	1.0149073179920518	-0.4038469613850641	0.0	1.027733333783863	-0.22598774935050162	0.0	1.0332082090393884	-0.0982030766088055	0.0	1.0126016796072441	-0.0512893089501513	0.0	1.01998010249325	-0.05182327781116829	0.0	1.0303124907590966	-0.08400021410327159	0.0	1.0277090142091803	-0.3964007531046715	0.0	1.0346739698422593	-0.24525647511167864	0.0	1.03014349309158	-0.10286664293201488	0.0	1.0197362590272536	-0.06128500350998462	0.0	1.0201820253069909	-0.36903943293779196	0.0	1.0296549087695956	-0.08585896677983768	0.0	1.0400089181192724	-0.6102076996107483	0.0	1.1003636430086856	-0.6611338029041548	0.0	1.0738727387208706	-0.6587246816411348	0.0	1.0208576921289632	-0.6053529446485665	0.0	1.0200567412498354	-0.6951183781845083	0.0	1.0343708336635322	-0.775331465434287	0.0	1.0499358270799624	-0.5974918416343341	0.0	1.0432930277316887	-0.6797903298220515	0.0	1.0481889044429908	-0.757049276123559	0.0
64	2.1546666666666665	1.0187684111877533	-0.39754482728531226	0.0	1.0143445802885007	-0.4035794281476312	0.0	1.0289268033889087	-0.22591465013560813	0.0	1.0356804241225366	-0.0975176158940309	0.0	1.013002298294763	-0.048696650054980466	0.0	1.0213057396162355	-0.049576615403110494	0.0	1.0329749517627256	-0.08237645467223528	0.0	1.0270885985152052	-0.3957917019604701	0.0	1.0356244206883713	-0.24281627300006714	0.0	1.0323180528981655	-0.10111322790889005	0.0	1.0220392027756686	-0.05853098887825044	0.0	1.0200533143698398	-0.3435270329657652	0.0	1.0323507876622415	-0.08513768177556057	0.0	1.0393918161116256	-0.6106756125434668	0.0	1.0993938287643787	-0.6618183679014382	0.0	1.0735541990343793	-0.659342306303841	0.0	1.0203692221776992	-0.6058131689440364	0.0	1.0199852583449838	-0.6956094745375093	0.0	1.0342341574718077	-0.7752773555253181	0.0	1.0488402515598967	-0.5977633258945568	0.0	1.0421581487716576	-0.6806100794975994	0.0	1.04758135518217	-0.7580763340264051	0.0
65	2.188333333333333	1.0179905099178406	-0.39764978334070045	0.0	1.0135201664861593	-0.40377130171737075	0.0	1.0300758948212307	-0.22609505397794766	0.0	1.037528844967051	-0.0966995597346149	0.0	1.0137848898043902	-0.046295900111119656	0.0	1.0229426619636606	-0.04690779688224872	0.0	1.0350769951880097	-0.08058143650040214	0.0	1.0261887106021135	-0.39581597803590657	0.0	1.0364655187752114	-0.2409451955740883	0.0	1.0338959262056657	-0.09969824158191345	0.0	1.0238835823366412	-0.05595779869482295	0.0	1.0202810605402477	-0.38904834986484643	0.0	1.0344203248819348	-0.0847835820305747	0.0	1.038715604732402	-0.6107297032710842	0.0	1.0981756751506568	-0.6622775657903601	0.0	1.0735088095646819	-0.6595146791639721	0.0	1.0198903560697454	-0.6055029407422514	0.0	1.0198640952469038	-0.69571844993032	0.0	1.0341633777411277	-0.7749398718670575	0.0	1.047777522364665	-0.5973238615428323	0.0	1.0418085328233486	-0.6807197172961041	0.0	1.0469697048447453	-0.7587467046688037	0.0
66	2.222	1.0171348557139712	-0.39862042449695967	0.0	1.0125583179098128	-0.4043009255777402	0.0	1.0310558327012065	-0.2265476907856401	0.0	1.0389677851537538	-0.09581665667428424	0.0	1.0149239259982772	-0.04407690449889317	0.0	1.0250464235611365	-0.0437300385562421	0.0	1.0368440303764677	-0.0787342353908705	0.0	1.0251606105381703	-0.3964547856027364	0.0	1.037210355968926	-0.23990097406437752	0.0	1.0350628913762978	-0.09857690765960198	0.0	1.0252174065043367	-0.053763634199279396	0.0	1.0209962339392333	-0.4889668576407971	0.0	1.0360298899990419	-0.08463761420547251	0.0	1.0380676456954705	-0.6103764360450616	0.0	1.0968901438380163	-0.6625507664764813	0.0	1.0735699479480323	-0.659061087981196	0.0	1.0194062953288696	-0.6046244619386344	0.0	1.0196562292991567	-0.695425224812743	0.0	1.0341531550038072	-0.7744288070804696	0.0	1.0469049822952767	-0.5963040744318786	0.0	1.0422776366768096	-0.6799511234026917	0.0	1.0463917247902947	-0.7589622273039655	0.0
67	2.2556666666666665	1.0163409713783809	-0.40004008090761817	0.0	1.0115438157719054	-0.40495171066352487	0.0	1.0317245310697132	-0.22719676143188086	0.0	1.0401171502360365	-0.09489001722870771	0.0	1.0162390513974398	-0.0421602105861763	0.0	1.0275131178286103	-0.04026811813708449	0.0	1.0384275288347369	-0.0769110629926711	0.0	1.0241866444595795	-0.39750357976415307	0.0	1.0378362083344397	-0.2395859275931146	0.0	1.0359936992142695	-0.0975788106426852	0.0	1.0260696995664864	-0.05193966976472011	0.0	1.0221324576825477	-0.6025108284794428	0.0	1.0373986465419456	-0.08449400093805037	0.0	1.037522280764087	-0.6097038518260316	0.0	1.0956655727247928	-0.6627944545767019	0.0	1.0735715016548835	-0.6580387264345933	0.0	1.01891846033914	-0.6034599993814722	0.0	1.019352675740336	-0.6947756435361734	0.0	1.0341490386079735	-0.7738881656956755	0.0	1.0463001120775621	-0.5948634428884368	0.0	1.0434016233506715	-0.6783302806243862	0.0	1.045885404668552	-0.758777972445007	0.0
68	2.289333333333333	1.0156572832037407	-0.4013285296035834	0.0	1.010476204408268	-0.4054352566847872	0.0	1.0319876956744116	-0.22784727723012702	0.0	1.0409897237549919	-0.09395314779058278	0.0	1.0175347017336587	-0.04084864408530857	0.0	1.030019312733405	-0.03709223839408084	0.0	1.0398313597359372	-0.07524043734456833	0.0	1.0233887051770705	-0.39857396135398954	0.0	1.0383054943671346	-0.23971435363937083	0.0	1.0367552336812922	-0.09662779513239445	0.0	1.0265615622307416	-0.05031633322831245	0.0	1.0234789551763819	-0.6966360800111644	0.0	1.0385944075022056	-0.08425043959933315	0.0	1.037120239724996	-0.6088071815766873	0.0	1.0945966487698378	-0.6630723484105705	0.0	1.0734559317257164	-0.6566190888287267	0.0	1.0184746881973423	-0.6022201110847132	0.0	1.0189802222479147	-0.69383675109219	0.0	1.0341024626496764	-0.7734155074593277	0.0	1.0459807833361574	-0.5930986951722751	0.0	1.0449529617413702	-0.6760906913331647	0.0	1.0454854624771828	-0.7583004843771828	0.0
69	2.323	1.0150534305437684	-0.40207735354833374	0.0	1.0093245938464315	-0.4055838439775061	0.0	1.0318217764446909	-0.22818913802093388	0.0	1.041522476402991	-0.09303968943508963	0.0	1.0186172414166579	-0.04025151778126384	0.0	1.0320016090161659	-0.03478753134353631	0.0	1.0408924477701618	-0.07386028168919859	0.0	1.0228164549820138	-0.39935035253680173	0.0	1.0385670427992306	-0.2399463627984761	0.0	1.0372695493765451	-0.09572705104841453	0.0	1.0269025000003182	-0.048646962055544245	0.0	1.0247059774673029	-0.7593939209404769	0.0	1.0394703353854011	-0.08384405426198864	0.0	1.036891930286682	-0.6078579711765704	0.0	1.093815860279148	-0.6633246413119113	0.0	1.0732407123152916	-0.6551433744402891	0.0	1.0181281428573825	-0.601086941123276	0.0	1.0186056846702662	-0.692752297211198	0.0	1.0340073696924184	-0.7730574010802206	0.0	1.0459425523385029	-0.5912204256636845	0.0	1.0466221799913653	-0.6737053226119848	0.0	1.0452161998314387	-0.7576423757276817	0.0
70	2.3566666666666665	1.014436485221237	-0.40242755396655155	0.0	1.008085438298155	-0.4056210890564008	0.0	1.0312524142589037	-0.2279449132364811	0.0	1.0416301630389746	-0.09205042846456497	0.0	1.0193584851917181	-0.03987312366089678	0.0	1.0329486087817588	-0.033421485644566984	0.0	1.0413764504802774	-0.07272428514364629	0.0	1.022401596830426	-0.39989579457648794	0.0	1.0385271030860401	-0.24000561180666422	0.0	1.0373877011496824	-0.0947298832943492	0.0	1.027419638371188	-0.04668499664263599	0.0	1.0255337498280268	-0.7919506823847219	0.0	1.0398465437861124	-0.08310473147886838	0.0	1.0367966467415501	-0.6071644925817604	0.0	1.0933728079459308	-0.6636066775228396	0.0	1.07291449416485	-0.6540897433801227	0.0	1.0179047244455297	-0.6003077471333735	0.0	1.0183401944678145	-0.6917761904574963	0.0	1.0339067956085315	-0.7728588346952773	0.0	1.0460113130035178	-0.5896330388200935	0.0	1.0478978779320016	-0.6717617485455826	0.0	1.045057843776205	-0.7569387514556098	0.0
71	2.390333333333333	1.0136491865900352	-0.4028633222776289	0.0	1.0067414918111246	-0.4060040554293445	0.0	1.0302935035350058	-0.22696870944947906	0.0	1.0412868465534697	-0.09075297331785245	0.0	1.0197815714170149	-0.03891154942730175	0.0	1.0327965231909417	-0.032483509279086026	0.0	1.0412078260503517	-0.07159951944697766	0.0	1.0218987735152498	-0.40052327858954223	0.0	1.0380516696582487	-0.23969776387978145	0.0	1.037055581889029	-0.09336706701740348	0.0	1.0286031837996161	-0.044269283404119064	0.0	1.0259852970217687	-0.797343176904913	0.0	1.0397170559648714	-0.08184794089630401	0.0	1.036679213135182	-0.6069828296535853	0.0	1.0930873497887688	-0.6641529579855949	0.0	1.0724465948125483	-0.6536913979688113	0.0	1.0177969537264582	-0.6000679697802348	0.0	1.0182798440944782	-0.6911532222879462	0.0	1.0338691927407173	-0.7728268097743595	0.0	1.0458303139784875	-0.5886185841222786	0.0	1.0482653606370447	-0.6705565897868239	0.0	1.0449102621364488	-0.7562513777975448	0.0
72	2.424	1.01249631367074	-0.4036612471880892	0.0	1.005156145868992	-0.4069557201374091	0.0	1.028799007733436	-0.2252695726218105	0.0	1.0406444330822628	-0.08903149499033051	0.0	1.0200859574430448	-0.03705398184561123	0.0	1.03202763230696	-0.031524285434409924	0.0	1.040678656937881	-0.07039115098257953	0.0	1.0209611473493685	-0.4014032084963633	0.0	1.0369927621240687	-0.23891091951799756	0.0	1.0364834736189041	-0.09162874850798172	0.0	1.0311064283700644	-0.041453449727453594	0.0	1.0264732681038509	-0.7743396436126548	0.0	1.0393697208571986	-0.0802023003465039	0.0	1.0363590556053468	-0.6072430487798163	0.0	1.09265746267756	-0.6651422469098698	0.0	1.071884144588041	-0.6537084287531713	0.0	1.0177587756582047	-0.6002888246917897	0.0	1.0184227872885048	-0.6909559021949684	0.0	1.0339565677049705	-0.7728626970491221	0.0	1.0451422488641553	-0.5880135108374122	0.0	1.0476199742096797	-0.6698171508710199	0.0	1.0446383520926195	-0.7554313048041439	0.0
